<?xml version="1.0" encoding="UTF-8" standalone="no"?>
<!DOCTYPE svg PUBLIC "-//W3C//DTD SVG 1.1//EN" "http://www.w3.org/Graphics/SVG/1.1/DTD/svg11.dtd">
<svg width="100%" height="100%" viewBox="0 0 1920 120" version="1.1" xmlns="http://www.w3.org/2000/svg" xmlns:xlink="http://www.w3.org/1999/xlink" xml:space="preserve" xmlns:serif="http://www.serif.com/" style="fill-rule:evenodd;clip-rule:evenodd;stroke-linejoin:round;stroke-miterlimit:2;">
    <g transform="matrix(-2.10526,2.5782e-16,-2.3831e-16,-1.94595,613.748,45.609)">
        <path d="M101.531,-38.229L117.214,22.855L85.847,22.855L101.531,-38.229Z" style="fill:rgb(229,79,13);"/>
    </g>
    <g transform="matrix(1,0,0,1,-95,0)">
        <rect x="290" y="60" width="10" height="58.865" style="fill:rgb(229,79,13);"/>
    </g>
    <g transform="matrix(1,0,0,1.01928,305,-1.15688)">
        <rect x="290" y="60" width="10" height="58.865" style="fill:rgb(229,79,13);"/>
    </g>
    <g transform="matrix(1,0,0,1.01928,505,-1.15688)">
        <rect x="290" y="60" width="10" height="58.865" style="fill:rgb(229,79,13);"/>
    </g>
    <g transform="matrix(1,0,0,1.01928,705,-1.15688)">
        <rect x="290" y="60" width="10" height="58.865" style="fill:rgb(229,79,13);"/>
    </g>
    <g transform="matrix(1,0,0,1.01928,905,-1.15688)">
        <rect x="290" y="60" width="10" height="58.865" style="fill:rgb(229,79,13);"/>
    </g>
    <g transform="matrix(1,0,0,1.01928,1105,-1.15688)">
        <rect x="290" y="60" width="10" height="58.865" style="fill:rgb(229,79,13);"/>
    </g>
    <g transform="matrix(1,0,0,1.01928,1305,-1.15688)">
        <rect x="290" y="60" width="10" height="58.865" style="fill:rgb(229,79,13);"/>
    </g>
    <g transform="matrix(1,0,0,1.01928,1505,-1.15688)">
        <rect x="290" y="60" width="10" height="58.865" style="fill:rgb(229,79,13);"/>
    </g>
</svg>
